<?xml version="1.0" standalone="no"?>
<!DOCTYPE svg PUBLIC "-//W3C//DTD SVG 20010904//EN"
 "http://www.w3.org/TR/2001/REC-SVG-20010904/DTD/svg10.dtd">
<svg version="1.0" xmlns="http://www.w3.org/2000/svg"
 width="412.000000pt" height="379.000000pt" viewBox="0 0 412.000000 379.000000"
 preserveAspectRatio="xMidYMid meet">

<g transform="translate(0.000000,379.000000) scale(0.100000,-0.100000)"
fill="#000000" stroke="none">
<path d="M1870 3709 c-375 -38 -744 -200 -1027 -451 -303 -268 -520 -653 -586
-1039 -22 -122 -3 -103 22 24 95 484 395 917 822 1185 161 102 406 201 584
236 611 121 1212 -61 1650 -499 258 -257 427 -572 496 -922 12 -62 26 -110 29
-108 22 14 -58 314 -126 476 -306 726 -1073 1178 -1864 1098z"/>
<path d="M2196 3528 c-12 -53 -26 -180 -20 -189 13 -22 33 -7 39 31 10 56 38
55 57 -2 11 -31 21 -44 36 -46 26 -4 26 -2 7 45 -15 35 -15 38 4 53 38 30 35
87 -7 108 -9 5 -38 13 -64 16 -44 7 -48 5 -52 -16z m92 -27 c8 -4 12 -19 10
-32 -2 -19 -10 -25 -35 -27 -32 -3 -33 -2 -33 32 0 31 3 36 23 36 12 0 28 -4
35 -9z"/>
<path d="M1805 3515 c-29 -28 -34 -98 -10 -144 29 -57 106 -63 146 -12 29 36
23 120 -11 156 -32 34 -91 35 -125 0z m95 -20 c17 -21 24 -89 11 -114 -15 -28
-55 -27 -75 1 -18 26 -21 80 -6 109 13 22 52 25 70 4z"/>
<path d="M2586 3462 c-14 -13 -4 -30 19 -36 31 -8 31 -14 -5 -106 -22 -56 -26
-76 -17 -82 21 -13 24 -10 57 72 l32 81 36 -3 c19 -2 36 2 38 7 4 11 -152 76
-160 67z"/>
<path d="M1430 3432 c-25 -10 -45 -22 -45 -27 0 -16 69 -195 75 -195 3 0 11 4
19 9 11 7 11 15 2 42 -7 22 -8 35 -2 37 6 2 25 13 43 25 45 31 50 76 12 106
-32 25 -45 25 -104 3z m84 -44 c12 -20 -4 -41 -40 -52 -18 -6 -24 -1 -33 25
-14 40 -14 37 7 42 30 8 55 3 66 -15z"/>
<path d="M1115 3261 c-81 -34 -72 -142 10 -127 17 3 42 9 57 12 21 5 29 2 35
-11 9 -26 -32 -58 -57 -45 -24 13 -52 -16 -29 -31 45 -28 129 18 129 72 0 19
-8 34 -25 45 -21 14 -31 14 -75 3 -44 -11 -53 -11 -60 1 -13 21 18 53 45 46
11 -3 27 -1 35 5 13 8 12 11 -4 24 -22 17 -32 18 -61 6z"/>
<path d="M2932 3248 c-19 -19 -14 -56 13 -102 22 -37 23 -45 11 -55 -27 -22
-62 7 -57 46 1 7 -7 17 -18 22 -15 8 -20 7 -24 -8 -13 -53 67 -126 113 -101
43 23 46 57 8 112 -20 29 -23 54 -8 63 15 9 50 -14 50 -33 0 -19 18 -42 32
-42 4 0 8 14 8 30 0 59 -90 106 -128 68z"/>
<path d="M1800 3170 c-398 -76 -755 -357 -929 -731 -52 -112 -111 -309 -92
-309 5 0 16 30 25 68 103 419 423 771 827 908 420 143 883 65 1222 -204 219
-175 386 -433 452 -701 9 -39 21 -71 26 -71 10 0 7 18 -28 140 -128 448 -528
809 -998 899 -138 27 -366 27 -505 1z"/>
<path d="M808 2963 c-24 -6 -23 -48 2 -73 25 -25 27 -25 89 4 47 21 49 24 33
38 -39 35 -76 44 -124 31z"/>
<path d="M3210 2959 c-25 -10 -24 -10 15 -28 22 -10 51 -31 65 -47 l25 -29
-30 26 c-88 78 -145 60 -145 -45 0 -42 4 -53 33 -80 36 -34 107 -47 133 -25 8
6 14 8 14 4 0 -5 10 0 21 11 23 21 40 55 45 93 3 29 -29 96 -51 104 -13 6 -13
3 1 -19 9 -13 14 -27 10 -31 -3 -3 -6 -1 -6 5 0 6 -12 24 -26 41 -27 33 -57
38 -104 20z m163 -92 c7 4 6 -1 -2 -10 -11 -14 -11 -17 0 -17 12 0 12 -2 0 -9
-7 -5 -10 -14 -7 -20 4 -6 4 -11 -1 -11 -4 0 -14 -14 -22 -31 -7 -16 -16 -28
-19 -25 -2 3 0 11 5 18 6 7 13 23 16 36 4 18 1 22 -21 23 l-27 2 28 4 c30 5
37 22 10 24 -17 1 -17 2 0 6 9 2 17 10 18 16 0 8 2 8 6 -1 2 -6 10 -9 16 -5z
m-150 -44 c-7 -2 -21 -2 -30 0 -10 3 -4 5 12 5 17 0 24 -2 18 -5z m97 -38 c-7
-9 -27 -25 -44 -36 -24 -16 -22 -12 9 15 43 38 55 46 35 21z"/>
<path d="M747 2917 c-22 -33 -30 -72 -23 -101 5 -22 10 -24 41 -19 40 6 80
-15 97 -53 15 -33 34 -30 74 10 30 30 34 40 34 86 0 51 0 52 -27 48 -16 -3
-44 -12 -64 -21 -45 -20 -77 -6 -100 42 l-15 33 -17 -25z"/>
<path d="M750 2767 c0 -16 52 -47 79 -47 26 0 27 14 1 40 -22 22 -80 28 -80 7z"/>
<path d="M1776 2686 c-94 -34 -167 -149 -186 -290 -11 -84 -6 -205 9 -234 4
-7 17 27 30 75 40 153 97 254 158 280 30 12 38 12 76 -6 23 -10 74 -49 112
-85 76 -72 127 -96 163 -77 26 14 36 49 29 100 -18 135 -262 283 -391 237z"/>
<path d="M2369 2608 c-140 -81 -88 -318 69 -318 88 0 154 58 168 147 10 64
-32 144 -90 172 -54 27 -101 26 -147 -1z"/>
<path d="M560 2571 c0 -5 14 -9 30 -9 17 1 30 5 30 10 0 4 -13 8 -30 8 -16 0
-30 -4 -30 -9z"/>
<path d="M630 2565 c0 -8 6 -15 14 -15 22 0 28 17 10 24 -22 9 -24 8 -24 -9z"/>
<path d="M3492 2560 c-82 -19 -126 -115 -87 -190 26 -49 61 -70 123 -70 50 0
58 3 93 39 34 34 39 44 39 86 0 98 -73 157 -168 135z m-17 -229 c-13 -14 -15
-4 -15 96 0 80 3 113 13 116 20 6 23 -192 2 -212z m72 172 c-3 -10 -5 -2 -5
17 0 19 2 27 5 18 2 -10 2 -26 0 -35z m42 -74 c-1 -60 -5 -112 -10 -115 -5 -3
-9 48 -9 116 0 81 3 119 10 115 7 -4 10 -50 9 -116z"/>
<path d="M672 2548 c-8 -8 -7 -16 1 -31 9 -15 9 -21 0 -24 -20 -7 -15 -24 5
-21 11 2 17 -3 17 -17 0 -11 -6 -20 -14 -20 -8 0 -16 -6 -18 -12 -3 -7 0 -13
5 -13 21 0 -1 -40 -25 -46 -16 -4 -21 -9 -13 -14 9 -5 9 -9 1 -14 -11 -7 -15
5 -12 32 1 6 -3 12 -9 12 -5 0 -10 -7 -10 -15 0 -8 -7 -15 -15 -15 -8 0 -18 0
-22 0 -5 0 -9 5 -9 10 -3 21 -4 22 -19 10 -16 -13 -18 -9 -16 25 2 20 1 20
-14 1 -14 -19 -15 -18 -15 12 0 18 -4 32 -10 32 -16 0 -11 -43 9 -76 10 -17
35 -38 56 -48 35 -17 37 -17 51 1 13 16 13 16 8 1 -4 -13 -1 -18 13 -18 28 0
73 23 73 38 0 7 4 11 9 7 5 -3 17 9 25 26 18 36 21 63 6 54 -5 -3 -10 -1 -10
4 0 6 5 11 10 11 24 0 0 81 -33 108 -10 8 -16 9 -25 0z m38 -142 c0 -3 -4 -8
-10 -11 -5 -3 -10 -1 -10 4 0 6 5 11 10 11 6 0 10 -2 10 -4z"/>
<path d="M530 2540 c0 -5 7 -10 15 -10 8 0 15 5 15 10 0 6 -7 10 -15 10 -8 0
-15 -4 -15 -10z"/>
<path d="M600 2534 c0 -8 5 -12 10 -9 6 3 10 10 10 16 0 5 -4 9 -10 9 -5 0
-10 -7 -10 -16z"/>
<path d="M500 2510 c0 -5 5 -10 10 -10 6 0 10 5 10 10 0 6 -4 10 -10 10 -5 0
-10 -4 -10 -10z"/>
<path d="M560 2510 c0 -5 7 -10 15 -10 8 0 15 5 15 10 0 6 -7 10 -15 10 -8 0
-15 -4 -15 -10z"/>
<path d="M630 2510 c0 -5 5 -10 10 -10 6 0 10 5 10 10 0 6 -4 10 -10 10 -5 0
-10 -4 -10 -10z"/>
<path d="M470 2480 c0 -5 5 -10 10 -10 6 0 10 5 10 10 0 6 -4 10 -10 10 -5 0
-10 -4 -10 -10z"/>
<path d="M530 2480 c0 -5 5 -10 10 -10 6 0 10 5 10 10 0 6 -4 10 -10 10 -5 0
-10 -4 -10 -10z"/>
<path d="M600 2480 c0 -5 5 -10 10 -10 6 0 10 5 10 10 0 6 -4 10 -10 10 -5 0
-10 -4 -10 -10z"/>
<path d="M566 2463 c-11 -11 -6 -23 9 -23 8 0 15 4 15 9 0 13 -16 22 -24 14z"/>
<path d="M636 2461 c-4 -7 -5 -15 -2 -18 9 -9 19 4 14 18 -4 11 -6 11 -12 0z"/>
<path d="M500 2450 c0 -5 5 -10 10 -10 6 0 10 5 10 10 0 6 -4 10 -10 10 -5 0
-10 -4 -10 -10z"/>
<path d="M536 2431 c-4 -7 -5 -15 -2 -18 9 -9 19 4 14 18 -4 11 -6 11 -12 0z"/>
<path d="M606 2431 c-4 -7 -5 -15 -2 -18 9 -9 19 4 14 18 -4 11 -6 11 -12 0z"/>
<path d="M566 2401 c-4 -5 -2 -12 3 -15 5 -4 12 -2 15 3 4 5 2 12 -3 15 -5 4
-12 2 -15 -3z"/>
<path d="M636 2401 c-4 -7 -5 -15 -2 -18 9 -9 19 4 14 18 -4 11 -6 11 -12 0z"/>
<path d="M2862 2403 c-26 -5 -25 -21 3 -37 47 -28 55 -44 55 -114 0 -60 -4
-74 -28 -108 -36 -49 -118 -123 -165 -149 -67 -36 -115 4 -157 131 -28 82 -62
124 -101 124 -64 0 -90 -115 -49 -222 42 -110 128 -194 209 -205 46 -6 120 25
182 76 84 70 166 235 176 355 6 72 6 71 72 128 13 10 11 13 -10 19 -27 8 -151
9 -187 2z"/>
<path d="M2062 2239 c-91 -46 -129 -167 -82 -265 67 -137 268 -142 346 -8 23
39 26 53 22 108 -3 47 -11 74 -30 104 -52 77 -167 105 -256 61z m121 -3 c10
10 107 -39 107 -54 0 -7 7 -15 15 -18 8 -4 12 -10 9 -15 -3 -6 -1 -16 6 -24
13 -16 20 -115 8 -115 -4 0 -8 -9 -8 -19 0 -10 -7 -21 -15 -25 -8 -3 -15 -12
-15 -21 0 -8 -7 -15 -15 -15 -9 0 -18 -7 -21 -15 -4 -8 -10 -12 -15 -9 -6 3
-17 0 -25 -7 -19 -16 -98 -16 -117 -1 -8 7 -17 9 -21 4 -4 -4 -12 1 -17 11 -6
9 -17 17 -24 17 -8 0 -15 7 -15 15 0 9 -7 18 -15 21 -8 4 -12 10 -9 15 3 6 1
16 -6 24 -16 19 -19 103 -4 116 7 6 11 16 8 23 -3 8 2 16 10 19 9 4 16 13 16
22 0 8 7 15 15 15 9 0 18 7 21 15 4 8 10 12 15 9 6 -3 15 -1 22 4 17 14 60 20
73 10 6 -4 14 -5 17 -2z"/>
<path d="M2205 2120 c-4 -6 -11 -8 -16 -5 -16 10 -10 -2 9 -16 9 -7 14 -9 10
-5 -4 5 -3 15 3 23 6 7 9 13 6 13 -3 0 -9 -5 -12 -10z"/>
<path d="M2103 2107 c0 -8 6 -14 14 -14 9 0 10 4 2 14 -6 7 -12 13 -14 13 -1
0 -2 -6 -2 -13z"/>
<path d="M2103 2027 c0 -8 6 -14 14 -14 9 0 10 4 2 14 -6 7 -12 13 -14 13 -1
0 -2 -6 -2 -13z"/>
<path d="M2191 2027 c-8 -10 -7 -14 2 -14 8 0 14 6 14 14 0 7 -1 13 -2 13 -2
0 -8 -6 -14 -13z"/>
<path d="M1685 2000 c-9 -10 -20 -39 -22 -63 -6 -49 10 -88 51 -126 14 -14 26
-29 26 -34 0 -14 -294 -353 -521 -599 -49 -53 -89 -99 -89 -103 0 -18 624 400
726 486 45 38 88 69 97 69 18 0 87 -62 87 -79 0 -35 -136 -126 -365 -245 l-80
-41 38 -3 c60 -5 169 15 290 54 140 45 192 72 238 121 86 91 91 137 28 232
-41 61 -192 216 -259 267 -104 77 -208 105 -245 64z"/>
<path d="M150 1880 l0 -90 60 0 c47 0 60 3 60 15 0 11 -11 15 -40 15 -36 0
-40 3 -40 25 0 22 4 25 36 25 45 0 42 24 -4 28 -24 2 -32 8 -32 23 0 16 7 19
40 19 29 0 40 4 40 15 0 12 -13 15 -60 15 l-60 0 0 -90z"/>
<path d="M346 1951 c-25 -28 -16 -53 24 -73 45 -22 62 -37 55 -49 -8 -13 -42
-11 -65 3 -27 17 -37 2 -15 -22 22 -24 77 -27 99 -4 32 31 14 66 -46 92 -35
15 -37 42 -3 42 14 0 25 -4 25 -10 0 -5 9 -10 20 -10 26 0 25 15 -2 34 -30 22
-71 20 -92 -3z"/>
<path d="M510 1955 c0 -10 10 -15 30 -15 l30 0 0 -75 c0 -60 3 -75 15 -75 12
0 15 15 15 75 l0 75 30 0 c20 0 30 5 30 15 0 12 -15 15 -75 15 -60 0 -75 -3
-75 -15z"/>
<path d="M720 1880 l0 -90 39 0 c24 0 48 8 65 21 22 17 26 28 26 69 0 41 -4
52 -26 69 -17 13 -41 21 -65 21 l-39 0 0 -90z m94 28 c15 -42 -3 -82 -37 -86
-27 -3 -27 -3 -27 58 0 61 0 61 27 58 20 -2 30 -11 37 -30z"/>
<path d="M3277 1952 c-27 -30 -22 -47 8 -28 64 42 74 -3 15 -68 -22 -24 -40
-48 -40 -55 0 -7 22 -11 60 -11 47 0 60 3 60 15 0 11 -11 15 -37 15 l-37 0 26
28 c39 40 50 75 32 101 -19 26 -65 28 -87 3z"/>
<path d="M3466 1957 c-24 -17 -32 -102 -14 -137 17 -31 62 -38 89 -14 27 24
27 124 1 147 -22 20 -52 22 -76 4z m62 -70 c3 -51 -10 -79 -34 -70 -10 4 -14
22 -14 65 0 56 1 59 23 56 19 -3 22 -10 25 -51z"/>
<path d="M3638 1948 c-22 -22 -22 -23 -3 -27 10 -2 21 2 23 8 5 16 42 13 48
-4 3 -8 -11 -35 -35 -63 -23 -26 -41 -54 -41 -60 0 -8 20 -12 60 -12 47 0 60
3 60 15 0 10 -11 15 -35 15 -19 0 -35 3 -35 6 0 4 14 22 30 41 34 39 39 78 11
93 -31 16 -59 12 -83 -12z"/>
<path d="M3826 1954 c-3 -9 -6 -28 -6 -44 0 -26 4 -29 38 -32 32 -3 37 -6 37
-28 0 -27 -32 -41 -45 -20 -4 7 -15 10 -24 8 -15 -3 -15 -5 -1 -25 33 -46 105
-18 105 40 0 31 -38 61 -64 51 -12 -4 -16 0 -16 15 0 17 6 21 35 21 24 0 35 5
35 15 0 22 -86 21 -94 -1z"/>
<path d="M249 1645 c-19 -18 48 -279 113 -442 290 -730 1050 -1201 1832 -1134
324 27 617 129 881 306 392 262 673 676 765 1127 11 56 23 111 25 120 2 10 -1
20 -5 23 -5 3 -14 -28 -20 -67 -19 -113 -74 -294 -124 -408 -93 -211 -216
-391 -381 -555 -261 -262 -562 -424 -930 -501 -117 -25 -151 -28 -340 -28
-220 -1 -278 5 -460 51 -443 110 -849 411 -1098 813 -102 165 -188 386 -227
580 -25 126 -24 123 -31 115z"/>
<path d="M774 1633 c3 -10 10 -39 15 -64 6 -26 22 -80 37 -120 156 -435 547
-765 999 -843 117 -21 343 -21 460 0 437 75 822 391 986 807 31 77 69 226 59
232 -4 2 -15 -26 -24 -63 -69 -277 -234 -531 -461 -706 -122 -95 -243 -160
-385 -209 -246 -84 -559 -84 -809 -1 -417 139 -742 492 -847 917 -9 37 -21 67
-26 67 -5 0 -7 -8 -4 -17z"/>
<path d="M523 1523 c-9 -23 19 -67 45 -71 13 -2 34 4 47 12 13 9 33 16 45 16
27 0 25 14 -6 39 -34 27 -121 30 -131 4z"/>
<path d="M3461 1531 c-12 -8 -10 -11 11 -16 14 -4 37 -18 50 -32 l23 -25 -39
26 c-54 36 -80 34 -100 -8 -20 -43 -20 -53 2 -59 16 -4 16 -5 0 -6 -22 -1 -22
-3 -4 -44 7 -18 25 -41 40 -50 30 -20 35 -18 119 43 40 29 45 36 30 42 -17 6
-17 7 0 7 9 1 17 8 17 16 0 8 5 15 11 15 5 0 7 -4 4 -10 -3 -5 -2 -10 4 -10
17 0 3 61 -20 86 -27 29 -37 24 -15 -8 9 -12 16 -29 16 -37 0 -8 -10 6 -23 30
-22 41 -27 44 -68 47 -24 1 -51 -2 -58 -7z m139 -107 c0 -2 -9 0 -20 6 -11 6
-20 13 -20 16 0 2 9 0 20 -6 11 -6 20 -13 20 -16z m-137 -21 c-7 -2 -19 -2
-25 0 -7 3 -2 5 12 5 14 0 19 -2 13 -5z m80 -10 c-13 -2 -33 -2 -45 0 -13 2
-3 4 22 4 25 0 35 -2 23 -4z"/>
<path d="M476 1488 c-15 -23 -20 -53 -18 -97 2 -21 6 -23 32 -17 41 8 78 -8
98 -44 21 -37 32 -37 71 -4 36 30 54 84 41 120 -12 30 -30 30 -80 2 -37 -21
-42 -22 -67 -8 -15 9 -33 26 -39 38 -17 34 -21 36 -38 10z"/>
<path d="M3602 1357 l-23 -52 25 25 c25 25 45 80 30 80 -5 0 -19 -24 -32 -53z"/>
<path d="M3537 1332 c-39 -30 -44 -38 -28 -40 28 -5 53 11 74 47 23 40 13 38
-46 -7z"/>
<path d="M487 1353 c-14 -14 -5 -25 36 -43 61 -28 71 -26 53 9 -17 33 -70 53
-89 34z"/>
<path d="M692 1144 c-26 -18 -29 -34 -6 -34 10 0 14 6 10 15 -3 9 0 15 8 15 8
0 22 3 31 6 13 6 15 2 9 -22 -6 -26 -5 -27 8 -16 22 18 11 52 -16 52 -12 0
-32 -7 -44 -16z"/>
<path d="M770 1147 c0 -7 9 -18 20 -24 24 -15 47 -55 29 -51 -6 2 -14 -3 -16
-10 -3 -7 1 -13 8 -11 34 4 40 0 27 -20 -7 -11 -14 -19 -17 -19 -18 2 -22 -4
-12 -16 15 -17 5 -44 -20 -51 -11 -4 -17 -10 -14 -15 3 -5 1 -12 -5 -15 -6 -4
-10 -3 -9 2 1 4 1 16 0 26 -1 21 -21 23 -21 2 0 -8 -7 -15 -15 -15 -8 0 -15
-5 -15 -12 0 -16 -11 -3 -15 19 -2 10 -4 20 -4 22 -1 2 -7 -2 -15 -8 -9 -8
-16 -8 -20 -2 -4 5 -2 12 4 16 6 4 8 11 4 16 -4 6 -11 6 -20 -2 -11 -9 -14 -7
-14 15 0 14 -5 26 -11 26 -16 0 -3 -62 16 -76 8 -6 12 -14 8 -18 -4 -4 3 -9
15 -13 12 -3 22 -9 22 -13 0 -17 44 -19 57 -2 12 16 13 16 7 0 -8 -23 23 -24
52 -3 12 8 24 11 28 8 3 -3 6 1 6 11 0 10 5 14 11 11 6 -4 13 2 16 14 3 12 9
21 14 21 5 0 9 12 9 26 0 17 -4 23 -12 18 -10 -6 -10 -4 0 7 14 15 17 63 2 54
-6 -3 -7 1 -4 10 8 20 -35 68 -54 60 -7 -2 -11 -1 -8 4 3 5 -1 12 -10 15 -22
8 -24 8 -24 -7z"/>
<path d="M3293 1141 c-42 -26 -63 -69 -63 -127 0 -42 4 -51 40 -86 36 -33 47
-38 88 -38 85 0 131 46 132 133 0 51 -4 61 -33 93 -28 31 -41 37 -83 41 -37 3
-57 -1 -81 -16z m27 -116 c0 -70 -4 -115 -10 -115 -6 0 -10 43 -10 108 0 95 4
122 17 122 2 0 3 -52 3 -115z m108 -9 c-1 -61 -3 -89 -5 -61 -3 35 -7 45 -13
35 -7 -10 -10 13 -10 67 0 69 2 81 15 77 12 -5 15 -27 13 -118z m-81 -48 c-2
-18 -4 -6 -4 27 0 33 2 48 4 33 2 -15 2 -42 0 -60z"/>
<path d="M640 1090 c0 -5 5 -10 10 -10 6 0 10 5 10 10 0 6 -4 10 -10 10 -5 0
-10 -4 -10 -10z"/>
<path d="M710 1090 c0 -5 5 -10 10 -10 6 0 10 5 10 10 0 6 -4 10 -10 10 -5 0
-10 -4 -10 -10z"/>
<path d="M770 1090 c0 -5 4 -10 9 -10 6 0 13 5 16 10 3 6 -1 10 -9 10 -9 0
-16 -4 -16 -10z"/>
<path d="M616 1071 c-4 -7 -5 -15 -2 -18 9 -9 19 4 14 18 -4 11 -6 11 -12 0z"/>
<path d="M675 1069 c-10 -15 3 -25 16 -12 7 7 7 13 1 17 -6 3 -14 1 -17 -5z"/>
<path d="M740 1060 c0 -5 5 -10 10 -10 6 0 10 5 10 10 0 6 -4 10 -10 10 -5 0
-10 -4 -10 -10z"/>
<path d="M646 1041 c-4 -7 -5 -15 -2 -18 9 -9 19 4 14 18 -4 11 -6 11 -12 0z"/>
<path d="M716 1041 c-4 -7 -5 -15 -2 -18 9 -9 19 4 14 18 -4 11 -6 11 -12 0z"/>
<path d="M775 1039 c-10 -15 3 -25 16 -12 7 7 7 13 1 17 -6 3 -14 1 -17 -5z"/>
<path d="M675 1009 c-10 -15 3 -25 16 -12 7 7 7 13 1 17 -6 3 -14 1 -17 -5z"/>
<path d="M746 1011 c-4 -7 -5 -15 -2 -18 9 -9 19 4 14 18 -4 11 -6 11 -12 0z"/>
<path d="M710 974 c0 -8 5 -12 10 -9 6 3 10 10 10 16 0 5 -4 9 -10 9 -5 0 -10
-7 -10 -16z"/>
<path d="M775 979 c-10 -15 3 -25 16 -12 7 7 7 13 1 17 -6 3 -14 1 -17 -5z"/>
<path d="M1136 684 c-52 -77 -64 -114 -37 -114 5 0 19 13 31 30 31 44 52 30
49 -32 -2 -38 1 -52 14 -59 13 -8 17 -3 22 28 10 57 13 63 33 63 26 0 52 31
52 62 0 25 -20 48 -76 86 l-30 21 -58 -85z m110 5 c33 -36 -10 -75 -51 -45
-18 13 -18 17 -6 40 17 31 32 33 57 5z"/>
<path d="M2901 760 c-11 -6 -9 -21 13 -75 15 -37 25 -69 23 -71 -2 -2 -25 19
-52 46 -78 79 -98 66 -61 -36 14 -38 24 -70 22 -71 -2 -2 -27 22 -55 53 -45
49 -54 55 -67 43 -12 -13 -4 -25 64 -92 68 -68 80 -76 95 -64 17 12 16 16 -7
80 -14 37 -22 67 -18 67 4 0 28 -20 52 -45 79 -80 96 -54 50 75 -18 50 -36 92
-39 95 -4 2 -13 0 -20 -5z"/>
<path d="M1497 583 c-3 -5 -21 -50 -40 -101 -24 -63 -32 -95 -24 -97 7 -2 37
-13 67 -24 41 -16 56 -18 62 -8 9 15 1 22 -44 37 -38 12 -47 30 -29 59 8 12
15 11 50 -2 39 -16 41 -16 41 2 0 13 -11 23 -35 31 -35 12 -42 24 -26 49 7 11
16 11 55 -2 27 -9 48 -12 51 -6 10 15 -3 26 -48 42 -23 8 -49 18 -58 22 -10 3
-19 3 -22 -2z"/>
<path d="M2478 548 c-32 -11 -58 -24 -58 -29 0 -5 14 -51 30 -103 l30 -94 65
21 c46 15 65 26 65 38 0 16 -4 16 -47 3 -49 -15 -57 -12 -67 22 -5 18 0 23 34
33 25 7 40 18 40 27 0 16 -2 16 -67 -2 -16 -4 -23 -1 -28 16 -9 27 0 36 45 47
19 5 35 15 35 23 0 20 -15 20 -77 -2z"/>
<path d="M1800 493 c0 -5 10 -54 21 -110 18 -85 25 -102 43 -107 26 -7 25 -9
79 107 l46 98 -25 -3 c-22 -2 -31 -15 -57 -78 -35 -83 -33 -85 -57 43 -9 46
-15 57 -31 57 -10 0 -19 -3 -19 -7z"/>
<path d="M2185 388 c3 -57 10 -107 15 -112 16 -16 42 3 37 27 -3 12 -9 59 -13
105 -6 73 -9 82 -27 82 -19 0 -19 -4 -12 -102z"/>
</g>
</svg>
